<mxfile host="app.diagrams.net" modified="2023-10-17T14:22:18.661Z" agent="Mozilla/5.0 (Windows NT 10.0; Win64; x64) AppleWebKit/537.36 (KHTML, like Gecko) Chrome/118.0.0.0 Safari/537.36" version="22.0.4" etag="fX8qhKnK63xCTSOC7YLw" type="github">
  <diagram name="Page-1" id="2hT5PjlEDrVHC1beTUGD">
    <mxGraphModel>
      <root>
        <mxCell id="0" />
        <mxCell id="1" parent="0" />
      </root>
    </mxGraphModel>
  </diagram>
</mxfile>
